<svg width="126" height="40" viewBox="0 0 126 40" fill="none" xmlns="http://www.w3.org/2000/svg">
<path d="M47 0H41L26 31V0H20L0 40H6L21 8V40H28L42 8V40H47V0Z" fill="#5967F6"/>
<path d="M50.856 16L55.848 4.8H58.408L63.416 16H60.696L56.6 6.112H57.624L53.512 16H50.856ZM53.352 13.6L54.04 11.632H59.8L60.504 13.6H53.352Z" fill="#5967F6"/>
<path d="M67.3286 16L62.4966 4.8H65.2966L69.5206 14.72H67.8726L72.1606 4.8H74.7366L69.8886 16H67.3286Z" fill="#5967F6"/>
<path d="M78.0557 9.312H83.4478V11.328H78.0557V9.312ZM78.2477 13.92H84.3438V16H75.6718V4.8H84.1357V6.88H78.2477V13.92Z" fill="#5967F6"/>
<path d="M86.4061 16V4.8H91.2541C92.2568 4.8 93.1208 4.96533 93.8461 5.296C94.5715 5.616 95.1315 6.08 95.5261 6.688C95.9208 7.296 96.1181 8.02133 96.1181 8.864C96.1181 9.696 95.9208 10.416 95.5261 11.024C95.1315 11.6213 94.5715 12.08 93.8461 12.4C93.1208 12.72 92.2568 12.88 91.2541 12.88H87.8461L88.9981 11.744V16H86.4061ZM93.5261 16L90.7261 11.936H93.4941L96.3261 16H93.5261ZM88.9981 12.032L87.8461 10.816H91.1101C91.9101 10.816 92.5075 10.6453 92.9021 10.304C93.2968 9.952 93.4941 9.472 93.4941 8.864C93.4941 8.24533 93.2968 7.76533 92.9021 7.424C92.5075 7.08267 91.9101 6.912 91.1101 6.912H87.8461L88.9981 5.68V12.032Z" fill="#5967F6"/>
<path d="M98.1718 16V4.8H100.764V16H98.1718Z" fill="#5967F6"/>
<path d="M108.782 16.192C107.918 16.192 107.112 16.0533 106.366 15.776C105.63 15.488 104.99 15.0827 104.446 14.56C103.902 14.0373 103.475 13.424 103.166 12.72C102.867 12.016 102.718 11.2427 102.718 10.4C102.718 9.55733 102.867 8.784 103.166 8.08C103.475 7.376 103.902 6.76267 104.446 6.24C105 5.71733 105.646 5.31733 106.382 5.04C107.118 4.752 107.923 4.608 108.798 4.608C109.768 4.608 110.643 4.77867 111.422 5.12C112.211 5.45067 112.872 5.94133 113.406 6.592L111.742 8.128C111.358 7.69067 110.931 7.36533 110.462 7.152C109.992 6.928 109.48 6.816 108.926 6.816C108.403 6.816 107.923 6.90133 107.486 7.072C107.048 7.24267 106.67 7.488 106.35 7.808C106.03 8.128 105.779 8.50667 105.598 8.944C105.427 9.38133 105.342 9.86667 105.342 10.4C105.342 10.9333 105.427 11.4187 105.598 11.856C105.779 12.2933 106.03 12.672 106.35 12.992C106.67 13.312 107.048 13.5573 107.486 13.728C107.923 13.8987 108.403 13.984 108.926 13.984C109.48 13.984 109.992 13.8773 110.462 13.664C110.931 13.44 111.358 13.104 111.742 12.656L113.406 14.192C112.872 14.8427 112.211 15.3387 111.422 15.68C110.643 16.0213 109.763 16.192 108.782 16.192Z" fill="#5967F6"/>
<path d="M117.476 13.44L117.332 10.448L122.692 4.8H125.572L120.74 10L119.3 11.536L117.476 13.44ZM115.156 16V4.8H117.732V16H115.156ZM122.82 16L118.836 11.12L120.532 9.28L125.844 16H122.82Z" fill="#5967F6"/>
<path d="M57.768 36.192C56.8827 36.192 56.0613 36.048 55.304 35.76C54.5573 35.472 53.9067 35.0667 53.352 34.544C52.808 34.0213 52.3813 33.408 52.072 32.704C51.7733 32 51.624 31.232 51.624 30.4C51.624 29.568 51.7733 28.8 52.072 28.096C52.3813 27.392 52.8133 26.7787 53.368 26.256C53.9227 25.7333 54.5733 25.328 55.32 25.04C56.0667 24.752 56.8773 24.608 57.752 24.608C58.6373 24.608 59.448 24.752 60.184 25.04C60.9307 25.328 61.576 25.7333 62.12 26.256C62.6747 26.7787 63.1067 27.392 63.416 28.096C63.7253 28.7893 63.88 29.5573 63.88 30.4C63.88 31.232 63.7253 32.0053 63.416 32.72C63.1067 33.424 62.6747 34.0373 62.12 34.56C61.576 35.072 60.9307 35.472 60.184 35.76C59.448 36.048 58.6427 36.192 57.768 36.192ZM57.752 33.984C58.2533 33.984 58.712 33.8987 59.128 33.728C59.5547 33.5573 59.928 33.312 60.248 32.992C60.568 32.672 60.8133 32.2933 60.984 31.856C61.1653 31.4187 61.256 30.9333 61.256 30.4C61.256 29.8667 61.1653 29.3813 60.984 28.944C60.8133 28.5067 60.568 28.128 60.248 27.808C59.9387 27.488 59.5707 27.2427 59.144 27.072C58.7173 26.9013 58.2533 26.816 57.752 26.816C57.2507 26.816 56.7867 26.9013 56.36 27.072C55.944 27.2427 55.576 27.488 55.256 27.808C54.936 28.128 54.6853 28.5067 54.504 28.944C54.3333 29.3813 54.248 29.8667 54.248 30.4C54.248 30.9227 54.3333 31.408 54.504 31.856C54.6853 32.2933 54.9307 32.672 55.24 32.992C55.56 33.312 55.9333 33.5573 56.36 33.728C56.7867 33.8987 57.2507 33.984 57.752 33.984Z" fill="#5967F6"/>
<path d="M67.9918 36V26.912H64.4078V24.8H74.1677V26.912H70.5837V36H67.9918Z" fill="#5967F6"/>
<path d="M80.8461 36.192C79.9608 36.192 79.1395 36.048 78.3821 35.76C77.6355 35.472 76.9848 35.0667 76.4301 34.544C75.8861 34.0213 75.4595 33.408 75.1501 32.704C74.8515 32 74.7021 31.232 74.7021 30.4C74.7021 29.568 74.8515 28.8 75.1501 28.096C75.4595 27.392 75.8915 26.7787 76.4461 26.256C77.0008 25.7333 77.6515 25.328 78.3981 25.04C79.1448 24.752 79.9555 24.608 80.8301 24.608C81.7155 24.608 82.5261 24.752 83.2621 25.04C84.0088 25.328 84.6541 25.7333 85.1981 26.256C85.7528 26.7787 86.1848 27.392 86.4941 28.096C86.8035 28.7893 86.9581 29.5573 86.9581 30.4C86.9581 31.232 86.8035 32.0053 86.4941 32.72C86.1848 33.424 85.7528 34.0373 85.1981 34.56C84.6541 35.072 84.0088 35.472 83.2621 35.76C82.5261 36.048 81.7208 36.192 80.8461 36.192ZM80.8301 33.984C81.3315 33.984 81.7901 33.8987 82.2061 33.728C82.6328 33.5573 83.0061 33.312 83.3261 32.992C83.6461 32.672 83.8915 32.2933 84.0621 31.856C84.2435 31.4187 84.3341 30.9333 84.3341 30.4C84.3341 29.8667 84.2435 29.3813 84.0621 28.944C83.8915 28.5067 83.6461 28.128 83.3261 27.808C83.0168 27.488 82.6488 27.2427 82.2221 27.072C81.7955 26.9013 81.3315 26.816 80.8301 26.816C80.3288 26.816 79.8648 26.9013 79.4381 27.072C79.0221 27.2427 78.6541 27.488 78.3341 27.808C78.0141 28.128 77.7635 28.5067 77.5821 28.944C77.4115 29.3813 77.3261 29.8667 77.3261 30.4C77.3261 30.9227 77.4115 31.408 77.5821 31.856C77.7635 32.2933 78.0088 32.672 78.3181 32.992C78.6381 33.312 79.0115 33.5573 79.4381 33.728C79.8648 33.8987 80.3288 33.984 80.8301 33.984Z" fill="#5967F6"/>
<path d="M88.9061 36V24.8H93.7541C94.7568 24.8 95.6208 24.9653 96.3461 25.296C97.0715 25.616 97.6315 26.08 98.0261 26.688C98.4208 27.296 98.6181 28.0213 98.6181 28.864C98.6181 29.696 98.4208 30.416 98.0261 31.024C97.6315 31.6213 97.0715 32.08 96.3461 32.4C95.6208 32.72 94.7568 32.88 93.7541 32.88H90.3461L91.4981 31.744V36H88.9061ZM96.0261 36L93.2261 31.936H95.9941L98.8261 36H96.0261ZM91.4981 32.032L90.3461 30.816H93.6101C94.4101 30.816 95.0075 30.6453 95.4021 30.304C95.7968 29.952 95.9941 29.472 95.9941 28.864C95.9941 28.2453 95.7968 27.7653 95.4021 27.424C95.0075 27.0827 94.4101 26.912 93.6101 26.912H90.3461L91.4981 25.68V32.032Z" fill="#5967F6"/>
<path d="M104.352 36.192C103.456 36.192 102.597 36.0747 101.776 35.84C100.954 35.5947 100.293 35.28 99.7917 34.896L100.672 32.944C101.152 33.2853 101.717 33.568 102.368 33.792C103.029 34.0053 103.696 34.112 104.368 34.112C104.88 34.112 105.29 34.064 105.6 33.968C105.92 33.8613 106.154 33.7173 106.304 33.536C106.453 33.3547 106.528 33.1467 106.528 32.912C106.528 32.6133 106.41 32.3787 106.176 32.208C105.941 32.0267 105.632 31.8827 105.248 31.776C104.864 31.6587 104.437 31.552 103.968 31.456C103.509 31.3493 103.045 31.2213 102.576 31.072C102.117 30.9227 101.696 30.7307 101.312 30.496C100.928 30.2613 100.613 29.952 100.368 29.568C100.133 29.184 100.016 28.6933 100.016 28.096C100.016 27.456 100.186 26.8747 100.528 26.352C100.88 25.8187 101.402 25.3973 102.096 25.088C102.8 24.768 103.68 24.608 104.736 24.608C105.44 24.608 106.133 24.6933 106.816 24.864C107.498 25.024 108.101 25.2693 108.624 25.6L107.824 27.568C107.301 27.2693 106.778 27.0507 106.256 26.912C105.733 26.7627 105.221 26.688 104.72 26.688C104.218 26.688 103.808 26.7467 103.488 26.864C103.168 26.9813 102.938 27.136 102.8 27.328C102.661 27.5093 102.592 27.7227 102.592 27.968C102.592 28.256 102.709 28.4907 102.944 28.672C103.178 28.8427 103.488 28.9813 103.872 29.088C104.256 29.1947 104.677 29.3013 105.136 29.408C105.605 29.5147 106.069 29.6373 106.528 29.776C106.997 29.9147 107.424 30.1013 107.808 30.336C108.192 30.5707 108.501 30.88 108.736 31.264C108.981 31.648 109.104 32.1333 109.104 32.72C109.104 33.3493 108.928 33.9253 108.576 34.448C108.224 34.9707 107.696 35.392 106.992 35.712C106.298 36.032 105.418 36.192 104.352 36.192Z" fill="#5967F6"/>
</svg>